<svg width="1440" height="981" xmlns="http://www.w3.org/2000/svg">

 <g>
  <title>background</title>
  <rect fill="none" id="canvas_background" height="402" width="582" y="-1" x="-1"/>
 </g>
 <g>
  <title>Layer 1</title>
  <rect id="svg_2" height="141" width="1449" y="-1.206249" x="-2.493748" stroke-width="1.5" stroke="#000" fill="#f5f8f8"/>
  <rect stroke="#000" id="svg_3" height="192.999993" width="1487.000096" y="806.793754" x="-26.493805" stroke-opacity="null" stroke-width="1.5" fill="#181818"/>
  <path id="svg_1" fill="#EA3730" d="m1133,0.63741c101,-5 312.5,111.50359 327.5,111.50359l-3,723.999c-10.17,-2.666 -49.93,3.111 -122,25.5c-117.5,36.5 -440.5,119 -544.5,119c-104,0 -113.5,-142 -189.5,-144.5c-76,-2.5 -228.064,74.644 -282,84.5c-98.5,18 -292.5,-29 -384,-59l10.5,-740.003c128.5,-20.496 330.4,-48.9998 426,-48.9998c119.5,0 366.5,48.9998 493,48.9998c89,0 194.59,-117.36542 268,-120.99959z"/>
 </g>
</svg>