<svg width="48" height="48" viewBox="0 0 48 48" fill="none" xmlns="http://www.w3.org/2000/svg">
<path d="M40.3196 28.7997H36.4801C32.2383 28.7997 28.7997 32.2383 28.7997 36.4801V40.3196C28.7997 44.5613 32.2383 48 36.4801 48H40.3196C44.5613 48 48 44.5613 48 40.3196V36.4801C48 32.2383 44.5613 28.7997 40.3196 28.7997Z" fill="#191919"/>
<path d="M48 7.68042V11.5199C47.994 13.555 47.1829 15.5051 45.7438 16.9441C44.3048 18.3832 42.3547 19.1943 40.3196 19.2003H26.8792C24.8445 19.2063 22.8948 20.0173 21.456 21.456C20.0173 22.8948 19.2063 24.8445 19.2003 26.8792V40.3196C19.1943 42.3547 18.3832 44.3048 16.9441 45.7438C15.5051 47.1829 13.555 47.994 11.5199 48H7.68042C5.64529 47.994 3.69523 47.1829 2.25617 45.7438C0.817109 44.3048 0.00599807 42.3547 0 40.3196V7.68042C0.00599807 5.64529 0.817109 3.69523 2.25617 2.25617C3.69523 0.817109 5.64529 0.00599807 7.68042 0L40.3196 0C42.3547 0.00599807 44.3048 0.817109 45.7438 2.25617C47.1829 3.69523 47.994 5.64529 48 7.68042Z" fill="white"/>
</svg>
