<svg width="102" height="131" viewBox="0 0 102 131" fill="none" xmlns="http://www.w3.org/2000/svg">
<path d="M80.9923 116.484C80.2808 122.176 77.4349 123.599 68.8972 127.157C60.8339 129.765 40.296 131.852 22.6514 119.33C0.595612 103.678 2.0186 77.3532 2.0186 68.8158C2.0186 60.2783 6.28745 48.1828 9.84482 40.3566C13.4022 32.5303 21.2284 19.7238 33.3235 10.4746C45.4185 1.22546 60.3595 6.20578 63.9169 8.34021C67.4743 10.4746 69.6087 9.76323 70.3201 7.6288C71.0316 5.49438 73.8775 -0.197414 75.3005 1.22553C76.7234 2.64848 77.4349 6.91733 77.4349 9.76323C77.4349 12.6091 83.8382 15.455 88.107 17.5894C91.5221 19.297 92.8502 17.8267 93.0873 16.8781C94.2731 12.6093 97.2139 7.91357 99.4906 23.2814C102.337 42.4912 95.9333 47.4715 91.6644 51.7404C87.3956 56.0092 75.3005 58.1437 73.1661 60.9896C71.0317 63.8354 72.4546 74.5075 73.1661 78.0649C73.8776 81.6224 71.7431 88.7371 68.8972 88.0256C66.0513 87.3141 66.7628 80.9108 66.7628 78.0649C66.7628 75.219 65.3399 66.6813 63.2054 64.547C61.071 62.4127 60.3596 66.6813 60.3596 68.8158C60.3596 70.9503 61.071 84.4682 60.3596 85.8912C59.6481 87.3141 56.0907 85.8912 54.6678 84.4682C53.2448 83.0453 53.9563 69.5273 51.8219 64.547C49.6874 59.5666 46.1301 63.8355 44.7071 66.6813C43.2842 69.527 45.4186 80.9109 46.1301 83.7568C46.8415 86.6027 44.7071 84.4682 41.8612 83.7568C39.0153 83.0453 36.1694 68.8158 34.7465 66.6813C33.3235 64.5467 31.1891 67.3929 31.9006 71.6617C32.612 75.9306 36.8809 82.3338 37.5924 84.4682C38.3038 86.6027 33.3235 91.583 30.4776 84.4682C27.6317 77.3535 18.3826 68.8157 16.2481 66.6813C14.1137 64.5468 9.84486 65.9698 10.5563 74.5075C11.2678 83.0452 23.3629 93.7173 29.7662 97.2747C36.1694 100.832 59.6481 102.966 66.7628 103.678C73.8776 104.389 81.7038 110.793 80.9923 116.484Z" stroke="#F5F8F8" stroke-width="2"/>
</svg>
