<svg width="128" height="134" viewBox="0 0 128 134" fill="none" xmlns="http://www.w3.org/2000/svg">
<path d="M93.669 13.4824C91.6466 13.4824 87.2087 4.49413 85.2425 0C80.7484 7.02207 71.2545 22.0774 69.2321 26.1221C66.7042 31.178 41.4247 53.9295 32.1556 72.4678C22.8865 91.006 30.4703 101.118 28.785 101.118C27.0997 101.118 11.6837 79.9725 10.9544 63.1986C10.1118 43.8177 11.0894 37.0765 18.6732 25.2795C26.2571 13.4824 35.5262 18.5383 38.0541 19.3809C39.6045 19.8977 38.0541 31.6836 32.1556 32.8633C27.9424 33.7059 27.0997 40.4471 32.1556 42.1324C37.2115 43.8177 44.7953 37.0765 46.4806 26.1221C48.1659 15.1677 39.7395 10.1118 28.785 9.26913C17.8305 8.42649 2.66296 23.5942 0.135011 57.3001C-2.39294 91.006 31.313 117.128 39.7395 122.184C48.166 127.24 70.0748 128.925 85.2425 130.611C100.41 132.296 100.41 130.611 101.253 127.24C102.095 123.869 93.669 119.656 91.9837 119.656C90.2984 119.656 87.7705 117.128 88.6131 115.443C89.4558 113.758 91.9837 112.915 93.669 111.23C95.3543 109.544 91.9837 99.4325 91.9837 96.9046C91.9837 94.3766 91.9837 91.006 93.669 92.6913C95.3543 94.3766 97.0396 99.4325 97.0396 103.646C97.0396 107.859 106.309 125.555 109.679 130.611C113.05 135.666 117.263 133.981 118.106 132.296C118.948 130.611 106.309 106.174 104.623 103.646C102.938 101.118 102.095 89.3207 102.938 88.4781C103.781 87.6355 106.309 91.006 107.994 95.2193C109.679 99.4325 118.106 122.184 122.319 125.555C125.69 128.251 127.094 122.746 127.375 119.656C123.723 113.758 116.252 100.612 115.578 95.2193C114.735 88.4781 111.365 69.9398 109.679 67.4119C107.994 64.8839 107.151 59.828 107.994 57.3001C108.837 54.7722 116.421 53.0869 124.847 38.7618C131.588 27.3018 125.971 11.5162 122.319 5.05589L113.893 13.4824H93.669Z" fill="#EA3730"/>
<circle cx="91.8487" cy="30.3355" r="10.9544" fill="#F5F8F8"/>
<circle cx="85.9502" cy="31.178" r="3.37059" fill="#EA3730"/>
<circle cx="113.758" cy="30.3355" r="10.9544" fill="#F5F8F8"/>
<circle cx="107.859" cy="31.178" r="3.37059" fill="#EA3730"/>
</svg>
