<svg width="1920" height="980" viewBox="0 0 1920 980" fill="none" xmlns="http://www.w3.org/2000/svg">
<path fill-rule="evenodd" clip-rule="evenodd" d="M0 835.594V980H1014.4C961.059 977.795 933.298 937.32 907.549 899.78C885.17 867.152 864.311 836.739 829.5 835.594C781.581 834.018 703.425 864.103 638.691 889.022C600.755 903.624 567.429 916.453 547.5 920.094C449 938.094 91.5 865.594 0 835.594ZM1025.03 980H1920V822H1919.5V835.594C1909.33 832.928 1712.5 827.435 1563.5 861.094C1531.17 868.398 1484.29 880.404 1431.01 894.047C1290.2 930.105 1104.7 977.605 1025.03 980Z" fill="#181818"/>
<path fill-rule="evenodd" clip-rule="evenodd" d="M1364.86 0H0V142.935C128.5 122.438 504.4 72.0912 600 72.0912C658.9 72.0912 748.774 83.995 839.927 96.0682C933.711 108.49 1028.85 121.091 1093 121.091C1140.53 121.091 1192.8 87.6144 1242.36 55.8654C1285.61 28.1675 1326.8 1.78464 1361 0.091383C1362.24 0.0302115 1363.52 0 1364.86 0ZM1919.5 210V196.935C1915.49 196.935 1881 182.539 1830.66 161.532C1694.81 104.841 1443.59 0 1364.86 0H1920V210H1919.5Z" fill="#F5F8F8"/>
<path d="M1361 0.091383C1462 -4.90862 1904.5 196.935 1919.5 196.935V835.594C1909.33 832.928 1712.5 827.435 1563.5 861.094C1443.49 888.206 1123 980.094 1019 980.094C915 980.094 905.5 838.094 829.5 835.594C753.5 833.094 601.436 910.238 547.5 920.094C449 938.094 91.5 865.594 0 835.594V142.935C128.5 122.438 504.4 72.0912 600 72.0912C719.5 72.0912 966.5 121.091 1093 121.091C1182 121.091 1287.59 3.72555 1361 0.091383Z" fill="#EA3730"/>
</svg>
