<svg width="17" height="18" viewBox="0 0 17 18" fill="none" xmlns="http://www.w3.org/2000/svg">
<path d="M16.6877 13.8165L12.8086 10.2895C12.6252 10.1229 12.3842 10.034 12.1366 10.0417C11.8889 10.0493 11.6539 10.1529 11.4812 10.3306L9.19758 12.679C8.64792 12.5741 7.54287 12.2296 6.40537 11.095C5.26787 9.95651 4.92338 8.8486 4.82127 8.30276L7.16784 6.01824C7.34573 5.84564 7.44948 5.6106 7.45714 5.36286C7.4648 5.11511 7.37576 4.87411 7.20887 4.69085L3.68282 0.812706C3.51586 0.628873 3.28382 0.517364 3.03597 0.501863C2.78812 0.486361 2.54399 0.568087 2.35542 0.729685L0.284644 2.50558C0.11966 2.67116 0.0211864 2.89153 0.00790328 3.1249C-0.00641086 3.36347 -0.279334 9.01464 4.1027 13.3986C7.92553 17.2204 12.7141 17.5 14.0329 17.5C14.2257 17.5 14.344 17.4943 14.3755 17.4924C14.6088 17.4793 14.8291 17.3804 14.9939 17.2147L16.7688 15.143C16.9311 14.955 17.0134 14.7111 16.9982 14.4632C16.9831 14.2154 16.8716 13.9833 16.6877 13.8165Z" fill="#F5F8F8"/>
</svg>
