<svg width="58" height="116" viewBox="0 0 58 116" fill="none" xmlns="http://www.w3.org/2000/svg">
<path d="M1.02816 71.4004C0.63388 76.1318 4.47807 81.5859 6.44944 83.7215C6.77801 84.2144 7.63227 85.2986 8.42082 85.6929C9.40651 86.1858 13.3493 89.1428 14.335 90.6214C15.3206 92.0999 11.3779 92.0999 7.43513 97.5212C3.49238 102.942 7.43513 110.335 14.335 112.799C21.2348 115.264 37.0058 116.249 47.8484 111.814C58.6909 107.378 51.2983 104.421 50.3126 103.435C49.3269 102.45 25.6704 105.9 19.7562 105.407C13.8421 104.914 13.8421 101.464 15.3206 96.0426C16.7992 90.6214 19.7562 92.0999 21.7276 92.0999C23.699 92.0999 41.9342 90.6214 50.3126 85.2001C58.6909 79.7788 57.2124 64.9934 56.2267 62.5292C55.241 60.065 51.7911 27.0444 51.2983 21.6231C50.8054 16.2019 48.3412 5.35929 47.8484 3.38793C47.3555 1.41657 45.877 1.9094 44.8913 3.38793C43.9056 4.86646 37.0058 7.33067 32.5702 7.33067C28.1346 7.33067 20.7419 3.88077 19.7562 3.38793C18.7705 2.89509 16.7992 0.923709 15.3206 1.9094C13.8421 2.89509 11.8707 13.2448 11.3779 14.7233C10.885 16.2019 7.92798 41.3369 7.43513 44.7868C6.94229 48.2368 1.521 65.4863 1.02816 71.4004Z" stroke="#FFFEFE" stroke-width="2"/>
</svg>
